<?xml version="1.0" encoding="UTF-8" standalone="no"?>
<!DOCTYPE svg PUBLIC "-//W3C//DTD SVG 1.1//EN" "http://www.w3.org/Graphics/SVG/1.1/DTD/svg11.dtd">
<svg width="100%" height="100%" viewBox="0 0 24 24" version="1.1" xmlns="http://www.w3.org/2000/svg" xmlns:xlink="http://www.w3.org/1999/xlink" xml:space="preserve" xmlns:serif="http://www.serif.com/" style="fill-rule:evenodd;clip-rule:evenodd;stroke-linejoin:round;stroke-miterlimit:1.41421;">
    <rect x="0" y="0" width="24" height="24" style="fill:none;"/>
    <path d="M12,4C9.24,4 7,6.24 7,9C7,11.85 9.92,16.21 12,18.88C14.11,16.19 17,11.88 17,9C17,6.24 14.76,4 12,4ZM12,11.5C10.62,11.5 9.5,10.38 9.5,9C9.5,7.62 10.62,6.5 12,6.5C13.38,6.5 14.5,7.62 14.5,9C14.5,10.38 13.38,11.5 12,11.5Z" style="fill:rgb(234,95,95);fill-opacity:0.3;fill-rule:nonzero;"/>
    <path d="M12,2C8.13,2 5,5.13 5,9C5,14.25 12,22 12,22C12,22 19,14.25 19,9C19,5.13 15.87,2 12,2ZM7,9C7,6.24 9.24,4 12,4C14.76,4 17,6.24 17,9C17,11.88 14.12,16.19 12,18.88C9.92,16.21 7,11.85 7,9Z" style="fill:rgb(234,95,95);fill-rule:nonzero;"/>
    <circle cx="12" cy="9" r="2.5" style="fill:rgb(234,95,95);"/>
</svg>
